<svg xmlns="http://www.w3.org/2000/svg" viewBox="0 0 48 48" width="48" height="48"><title>check list</title><g class="nc-icon-wrapper"><path d="M44,7H21a1,1,0,0,0,0,2H44a1,1,0,0,0,0-2Z" fill="#444"/> <path d="M44,23H21a1,1,0,0,0,0,2H44a1,1,0,0,0,0-2Z" fill="#444"/> <path d="M44,39H21a1,1,0,0,0,0,2H44a1,1,0,0,0,0-2Z" fill="#444"/> <rect x="3" y="2" width="12" height="12" rx="1" ry="1" fill="#b3b3b3"/> <rect x="3" y="34" width="12" height="12" rx="1" ry="1" fill="#b3b3b3"/> <path d="M14.211,18.386,7.906,26.492l-3.2-3.2a1,1,0,0,0-1.414,1.414l4,4A1,1,0,0,0,8,29l.062,0a1,1,0,0,0,.727-.384l7-9a1,1,0,1,0-1.578-1.228Z" fill="#72c472"/></g></svg>